# xmcd
#
# Track frame offsets:
#	150
#	13467
#	30330
#	45832
#	60045
#	73740
#	88022
#	103895
#	118272
#	130117
#
# Disc length: 1969 seconds
#
# Revision: 4
# Processed by: cddbd v1.5.2PL0 Copyright (c) Steve Scherf et al.
# Submitted via: audiograbber 1.83.01
#
DISCID=7e07af0a
DTITLE=Seneca - Seneca
DYEAR=1994
DGENRE=Country
TTITLE0=A Light of my Own
TTITLE1=By Way of the Son
TTITLE2=Old Book - New Page
TTITLE3=That's why we're Here
TTITLE4=Happily Ever After
TTITLE5=We got a Good Thing Going
TTITLE6=The Real True Love Can Wait
TTITLE7=Good as Old
TTITLE8=A Place in the Sun
TTITLE9=Where would I be
EXTD=
EXTT0=
EXTT1=
EXTT2=
EXTT3=
EXTT4=
EXTT5=
EXTT6=
EXTT7=
EXTT8=
EXTT9=
PLAYORDER=
